<svg width="18" height="17" viewBox="0 0 18 17" fill="none" xmlns="http://www.w3.org/2000/svg">
<g id="Group">
<path id="Vector" d="M13.6084 4.72501L9.4417 0.558339C9.19753 0.314172 8.8017 0.314172 8.55836 0.558339L4.3917 4.72501C4.1467 4.96917 4.1467 5.36501 4.3917 5.60834C4.6367 5.85167 5.03086 5.85334 5.27503 5.60834L8.37503 2.50834V11C8.37503 11.345 8.65503 11.625 9.00003 11.625C9.34503 11.625 9.62503 11.345 9.62503 11V2.50834L12.725 5.60834C12.8467 5.73084 13.0067 5.79167 13.1667 5.79167C13.3267 5.79167 13.4867 5.73167 13.6084 5.60834C13.8525 5.36417 13.8525 4.96917 13.6084 4.72501Z" fill="#6E767D"/>
<path id="Vector_2" d="M15.4234 16.7867H2.57669C1.52335 16.7867 0.666687 15.93 0.666687 14.8767V10.1667C0.666687 9.82166 0.946687 9.54166 1.29169 9.54166C1.63669 9.54166 1.91669 9.82166 1.91669 10.1667V14.8767C1.91669 15.2408 2.21252 15.5367 2.57669 15.5367H15.4234C15.7875 15.5367 16.0834 15.2408 16.0834 14.8767V10.1667C16.0834 9.82166 16.3634 9.54166 16.7084 9.54166C17.0534 9.54166 17.3334 9.82166 17.3334 10.1667V14.8767C17.3334 15.93 16.4767 16.7867 15.4234 16.7867Z" fill="#6E767D"/>
</g>
</svg>
